# xmcd
#
# Track frame offsets:
#	150
#	17637
#	32615
#	48847
#	64952
#	80785
#	98667
#	118112
#	131845
#	144442
#	160605
#	177067
#	193035
#	213595
#	230035
#	254843
#	270788
#	288133
#	304603
#
# Disc length: 4382
#
# Revision: 1
# Processed by: cddbd v1.5.1PL0 Copyright (c) Steve Scherf et al.
# Submitted via: dBpowerAMP V4.0
# Normalized: r0:DSETVAR1,TDELIM( - )
#
DISCID=0b111c13
DTITLE=Various Artist - Clubtrance '99
DYEAR=1999
DGENRE=Dance
TTITLE0=Paul Van Dijk - For An Angel
TTITLE1=Kai Tracid - Dance For Eternity
TTITLE2=Miss Jane - It's A fine Day (ATB radio mix)
TTITLE3=Dumonde - Tomorrow
TTITLE4=Mike Koglin - The Silence
TTITLE5=Blank and Jones - Flying To The Moon (Paffendorf radio cut)
TTITLE6=Vincent De Moor - Shamu
TTITLE7=Strings Of Harmony - Part 1 and 2
TTITLE8=Mark Van Dale and Enrico - Powerwoman
TTITLE9=Sunbox - Belong (Mark Van Dale and Enrico edit)
TTITLE10=Da Symbol - 1999
TTITLE11=Mind and Buzz - The Temple Of Love
TTITLE12=MV&B - Limits
TTITLE13=Ceres - Turn Me On Now
TTITLE14=Pink - Don't Stop (Bow Bellow and Trilithon remix)
TTITLE15=Cab 'N Crew - Airport '99
TTITLE16=Ron Hagen and Pascal M. - Forever
TTITLE17=Night Flight - Mo Funk
TTITLE18=Rob 'N Hood - Big Big World (Da Doc's trance mix)
EXTD=
EXTT0=
EXTT1=
EXTT2=
EXTT3=
EXTT4=
EXTT5=
EXTT6=
EXTT7=
EXTT8=
EXTT9=
EXTT10=
EXTT11=
EXTT12=
EXTT13=
EXTT14=
EXTT15=
EXTT16=
EXTT17=
EXTT18=
PLAYORDER=
